# xmcd
#
# Track frame offsets:
#	150
#	5685
#	23262
#	26190
#	51792
#	57106
#	76592
#	83448
#	105584
#	121449
#	124471
#	157539
#	182547
#	186031
#	201324
#	219245
#	227724
#	248214
#	274163
#	281325
#
# Disc length: 3989 seconds
#
# Revision: 1
# Processed by: cddbd v1.5.2PL0 Copyright (c) Steve Scherf et al.
# Submitted via: audiograbber 1.81.03
#
DISCID=f90f9314
DTITLE=The`Warren Project - Fresh IE
DYEAR=2007
DGENRE=R&B
TTITLE0=Warren's Story
TTITLE1=Live On
TTITLE2=BeatBreak One
TTITLE3=One More Day
TTITLE4=PSA
TTITLE5=I Am Sorry
TTITLE6=BeatBreak Two
TTITLE7=Breathe
TTITLE8=The`Child I Was
TTITLE9=BeatBreak Three
TTITLE10=Crystal
TTITLE11=Suppose
TTITLE12=BeatBreak Four
TTITLE13=Endless
TTITLE14=Empty Tones
TTITLE15=BeatBreak Five
TTITLE16=Purpose
TTITLE17=Let It Rain
TTITLE18=BeatBreak Six
TTITLE19=I Cry
EXTD=
EXTT0=
EXTT1=
EXTT2=
EXTT3=
EXTT4=
EXTT5=
EXTT6=
EXTT7=
EXTT8=
EXTT9=
EXTT10=
EXTT11=
EXTT12=
EXTT13=
EXTT14=
EXTT15=
EXTT16=
EXTT17=
EXTT18=
EXTT19=
PLAYORDER=
